<mxfile host="Electron" modified="2024-01-30T13:26:11.309Z" agent="Mozilla/5.0 (Windows NT 10.0; Win64; x64) AppleWebKit/537.36 (KHTML, like Gecko) draw.io/22.0.2 Chrome/114.0.5735.289 Electron/25.8.4 Safari/537.36" etag="GEieM_9hUTpYlpegVQi7" version="22.0.2" type="device">
  <diagram name="Page-1" id="e7e014a7-5840-1c2e-5031-d8a46d1fe8dd">
    <mxGraphModel dx="1219" dy="713" grid="1" gridSize="10" guides="1" tooltips="1" connect="1" arrows="1" fold="1" page="1" pageScale="1" pageWidth="1169" pageHeight="826" background="none" math="0" shadow="0">
      <root>
        <mxCell id="0" />
        <mxCell id="1" parent="0" />
        <mxCell id="38" value="" style="ellipse;shape=endState;fillColor=#000000;strokeColor=default;" parent="1" vertex="1">
          <mxGeometry x="264.5" y="320" width="30" height="30" as="geometry" />
        </mxCell>
        <mxCell id="6" value="" style="edgeStyle=elbowEdgeStyle;elbow=horizontal;verticalAlign=bottom;endArrow=open;endSize=8;strokeColor=default;endFill=1;rounded=0;entryX=0.5;entryY=0;entryDx=0;entryDy=0;exitX=0.5;exitY=1;exitDx=0;exitDy=0;" parent="1" source="wlp53czp1e3O-tcDBJMG-41" target="7" edge="1">
          <mxGeometry x="264.5" y="168" as="geometry">
            <mxPoint x="279.5" y="238" as="targetPoint" />
            <mxPoint x="310" y="200" as="sourcePoint" />
          </mxGeometry>
        </mxCell>
        <mxCell id="7" value="Run Linux commands" style="rounded=1;" parent="1" vertex="1">
          <mxGeometry x="216.75" y="220" width="125.5" height="30" as="geometry" />
        </mxCell>
        <mxCell id="8" value="Reboot device" style="rounded=1;" parent="1" vertex="1">
          <mxGeometry x="216.75" y="270" width="125.5" height="30" as="geometry" />
        </mxCell>
        <mxCell id="9" value="" style="endArrow=open;strokeColor=default;endFill=1;rounded=0" parent="1" source="7" target="8" edge="1">
          <mxGeometry relative="1" as="geometry" />
        </mxCell>
        <mxCell id="11" value="" style="endArrow=open;strokeColor=default;endFill=1;rounded=0;entryX=0.5;entryY=0;entryDx=0;entryDy=0;" parent="1" source="8" target="38" edge="1">
          <mxGeometry relative="1" as="geometry">
            <mxPoint x="279.5" y="453" as="targetPoint" />
          </mxGeometry>
        </mxCell>
        <mxCell id="wlp53czp1e3O-tcDBJMG-41" value="" style="ellipse;whiteSpace=wrap;html=1;aspect=fixed;fillColor=#000000;" vertex="1" parent="1">
          <mxGeometry x="264.5" y="170" width="30" height="30" as="geometry" />
        </mxCell>
      </root>
    </mxGraphModel>
  </diagram>
</mxfile>
